<svg data-name="Layer 1" xmlns="http://www.w3.org/2000/svg" width="1500" height="500"><defs><style>.cls-1{fill:#bece49}.cls-2{fill:#fff}</style></defs><path class="cls-1" d="M987.034 297.55v-67.327h28.264c21.198 0 36.44 12.718 36.44 33.613s-15.242 33.715-36.339 33.715Zm46.938-33.714c0-10.397-6.258-18.472-18.573-18.472h-11.003v37.046h10.902c11.81 0 18.674-8.58 18.674-18.574ZM1083.713 297.55v-67.327h49.36v15.141h-31.998v10.498h31.292v15.141h-31.292v11.407h31.998v15.141ZM1213.935 297.55l-3.333-9.69h-26.547l-3.33 9.69h-19.684l25.336-67.327h21.802l25.438 67.328Zm-16.657-50.167-8.58 25.336h17.162ZM1263.603 297.55v-67.327h17.362v52.187h27.052v15.141ZM1337.196 288.062l9.185-13.021a30.42 30.42 0 0 0 21.5 8.883c5.956 0 9.59-2.322 9.59-5.552 0-9.186-38.156-1.817-38.156-27.759 0-11.305 9.59-21.4 26.85-21.4 10.8 0 20.188 3.23 27.355 9.388l-9.489 12.416a31.697 31.697 0 0 0-19.683-6.965c-5.047 0-7.268 2.019-7.268 4.845 0 8.58 38.055 2.322 38.055 27.355 0 13.526-9.993 22.51-28.062 22.51-13.626 0-23.114-4.24-29.878-10.7Z"/><path class="cls-2" d="m582.802 294.44-.001-.003.004.013-.003-.01zM583.128 295.242l-.001-.003.005.013-.004-.01zM673.738 166.339l-61.025-.004a3.198 3.198 0 0 0-3.198 3.188l-.081 24.361a3.198 3.198 0 0 0 3.198 3.209h13.677v162.631a3.191 3.191 0 0 0 3.19 3.191h44.239c60.633 0 105.145-36.548 105.145-98.564 0-62.021-44.512-98.012-105.145-98.012Zm-1.94 165.842h-9.176V197.073h9.176c38.761 0 69.433 23.533 69.433 67.278 0 44.297-30.12 67.83-69.433 67.83ZM876.04 249.157c-28.94-10.963-39.216-17.351-39.216-31.377v-.273c0-12.175 10.696-20.356 26.617-20.356 13.573 0 27.896 5.924 42.573 17.608l.187.151a2.985 2.985 0 0 0 4.246-.502l16.948-22.393a2.845 2.845 0 0 0-.441-3.903l-.305-.258c-17.633-15.118-38.617-22.784-62.372-22.784-37.407 0-63.534 22.685-63.534 55.164v.544c0 31.96 20.155 45.443 57.357 59.145 30.544 11.056 36.132 18.595 36.132 29.46v.274c0 13.48-11.59 22.536-28.841 22.536-17.268 0-32.694-6.841-50.016-22.182l-.438-.375a2.986 2.986 0 0 0-4.233.363l-17.991 21.909a2.845 2.845 0 0 0 .348 3.975l.46.397c20.58 18.575 44.666 27.993 71.59 27.993 38.226 0 64.924-23.356 64.924-56.797v-.546c0-14.313-4.245-25.306-13.361-34.595-8.357-8.516-21.27-15.88-40.634-23.177ZM453.868 320.741h2.662l.001-.003h-2.95l.287.003Z"/><path class="cls-2" d="M612.05 359.342 531.811 169.83a5.282 5.282 0 0 0-4.864-3.223h-26.874a5.282 5.282 0 0 0-4.864 3.223l-54.832 129.51-5.61 13.25a3.788 3.788 0 0 0 1.071 4.447 14.567 14.567 0 0 0 5.902 2.834l.096.02a78.222 78.222 0 0 0 11.743.847h13.884a2.971 2.971 0 0 0 2.771-1.882c1.038-2.635 3.103-7.884 5.788-14.71h74.846l21.493 54.783a6.318 6.318 0 0 0 5.872 3.987h31.448a2.57 2.57 0 0 0 2.367-3.573ZM487.37 275.296l26.122-66.416 26.057 66.416Z"/><path class="cls-2" d="M443.436 334.58a87.441 87.441 0 0 1-13.482-1.533c-.321-.077-.632-.161-.632-.161a33.08 33.08 0 0 1-1.64-.506q-.884-.297-1.73-.635a26.653 26.653 0 0 1-2.492-1.172c-.048-.026-.093-.055-.14-.08a25.594 25.594 0 0 1-9.712-9.306c-6.833-10.825-12.191-35.319-24.853-43.227a38.365 38.365 0 0 0 11.31-6.593c9.541-7.878 18.776-22.238 18.776-45.539 0-.886-.027-1.756-.056-2.626-.475-14.45-4.874-26.51-12.292-35.735-7.218-8.977-17.288-15.272-29.394-18.457a76.28 76.28 0 0 0-19.418-2.403h-83.44a3.244 3.244 0 0 0-3.244 3.244l-.126 24.042a3.244 3.244 0 0 0 3.244 3.244h13.427l.154 162.724a3.178 3.178 0 0 0 3.17 3.183c6.86.013 23.015.03 29.882.033a3.178 3.178 0 0 0 3.18-3.184l-.009-70.04 22.453.012a19.814 19.814 0 0 1 13.7 5.414c4.663 4.54 6.534 9.171 9.397 15.347 4.725 10.192 5.765 15.382 12.444 26.815 7.263 12.435 16.425 20.546 28.733 23.327.08.018.167.036.25.053 7.087 1.536 26.13 2.141 34.972 2.215h3.024a6.021 6.021 0 0 0 5.604-3.818l8.657-22.023a1.915 1.915 0 0 0-1.782-2.615Zm-91.13-75.82h-28.78l-.126-61.56 29.463.126c17.711 0 28.503 11.065 28.503 30.437 0 19.65-10.792 30.997-29.06 30.997ZM225.554 259.224l-.657-.196.657-.356c11.898-6.088 23.952-19.715 23.952-41.573 0-32.374-25.456-50.633-60.872-50.633h-80.592a3.178 3.178 0 0 0-3.178 3.177v24.359a3.178 3.178 0 0 0 3.178 3.178h13.637l.007 162.55a3.184 3.184 0 0 0 3.185 3.185l64.593-.002c36.524 0 67.79-17.709 67.79-56.996 0-19.924-10.394-40.327-31.7-46.693Zm-67.629-62.044h31.507c16.043 0 24.348 10.233 24.348 24.348 0 14.11-8.578 25.178-23.796 25.178h-32.059Zm35.379 135.019s-35.379-.052-35.379-.116v-56.602h35.379c17.43 0 27.667 11.898 27.667 28.22 0 16.604-9.959 28.497-27.667 28.497Z"/><path class="cls-1" d="m769.818 135.727-10.828 28.139 11.348 25.595.018.04 25.608-11.379 16.265-42.27Zm6.731 37.679-.028-.012a7.94 7.94 0 0 1 5.703-14.823l.03.01a7.942 7.942 0 1 1-5.705 14.824Z"/><path d="m795.964 178.123 16.265-42.27-21.205-.063h-.034l-8.766 22.781.03.01a7.942 7.942 0 1 1-5.705 14.824l-.029-.012-6.182 16.067.018.04Z" style="fill:#aabe59"/></svg>
